<svg width="320" height="140" viewBox="0 0 320 140" fill="none" xmlns="http://www.w3.org/2000/svg">
  <path d="M18 30C18 27.7909 19.7909 26 22 26H63.5C64.8934 26 66.1546 26.9551 66.5 28.3086L79 78.5L93.5 30.3086C93.8454 28.9551 95.1066 28 96.5 28H134C135.381 28 136.634 28.9386 137 30.2805L155 96.5L173.5 30.2805C173.866 28.9386 175.119 28 176.5 28H218C220.21 28 222 29.7909 222 32V34.5C222 35.163 221.795 35.8118 221.414 36.3431L181.086 92.9107C180.388 93.8759 180 95.0282 180 96.2144V108C180 110.209 181.791 112 184 112H220C222.209 112 224 113.791 224 116V118C224 120.209 222.209 122 220 122H134.5C133.107 122 131.846 121.045 131.5 119.691L118.5 68.5L104 119.691C103.655 121.045 102.393 122 101 122H52C49.7909 122 48 120.209 48 118V116C48 115.337 48.2049 114.688 48.5858 114.157L63 94.5L18 36.5C18 36.5 18 32 18 30Z" fill="#FF2C55"/>
  <path d="M220 28H258C259.657 28 261 29.3431 261 31V62.5L295 18.5C295.63 17.6583 296.63 17.1426 297.7 17.1426H318C319.657 17.1426 321 18.4857 321 20.1426V21.5C321 22.473 320.644 23.412 320 24.1426L285.5 64.5L321 122C321 122 321 123.643 321 124.5C321 125.881 319.881 127 318.5 127H278C277.172 127 276.382 126.591 275.914 125.93L247 80.5L232.5 97.5V118C232.5 120.209 230.709 122 228.5 122H188C185.791 122 184 120.209 184 118V94C184 67.3858 197.386 54 224 54H232V32C232 29.7909 230.209 28 228 28H220V28Z" fill="#FF2C55"/>
  <path d="M220 28H232C234.209 28 236 29.7909 236 32V54H224C197.386 54 184 67.3858 184 94V118C184 120.209 185.791 122 188 122H206V94C206 76.3279 210 56.2727 236 56.2727V32C236 29.7909 234.209 28 232 28H220V28Z" fill="#E11940"/>
  <path d="M222 32C222 30.3431 223.343 29 225 29H282C283.657 29 285 30.3431 285 32V33C285 33.6828 284.768 34.3467 284.344 34.8743L245 83.5V58C245 57.5108 245.119 57.0286 245.344 56.6077L276.5 0.5H225C223.343 0.5 222 1.84315 222 3.5V32Z" fill="#FF2C55"/>
  <path d="M222 116C222 113.791 220.209 112 218 112H206V94C206 77.5 210 56 236 56V32C236 29.7909 234.209 28 232 28H218C215.791 28 214 29.7909 214 32V116C214 118.209 215.791 120 218 120H222V116Z" fill="#C11435"/>
</svg>

